<?xml version="1.0" encoding="UTF-8" standalone="no"?>
<!-- Created with Inkscape (http://www.inkscape.org/) -->

<svg
   xmlns:dc="http://purl.org/dc/elements/1.1/"
   xmlns:cc="http://creativecommons.org/ns#"
   xmlns:rdf="http://www.w3.org/1999/02/22-rdf-syntax-ns#"
   xmlns:svg="http://www.w3.org/2000/svg"
   xmlns="http://www.w3.org/2000/svg"
   xmlns:sodipodi="http://sodipodi.sourceforge.net/DTD/sodipodi-0.dtd"
   xmlns:inkscape="http://www.inkscape.org/namespaces/inkscape"
   width="1000mm"
   height="447.22043mm"
   viewBox="0 0 999.99999 447.22043"
   version="1.1"
   id="svg3105"
   inkscape:version="0.92.4 (5da689c313, 2019-01-14)"
   sodipodi:docname="Logo Alfamart.svg">
  <defs
     id="defs3099" />
  <sodipodi:namedview
     id="base"
     pagecolor="#ffffff"
     bordercolor="#666666"
     borderopacity="1.0"
     inkscape:pageopacity="0.0"
     inkscape:pageshadow="2"
     inkscape:zoom="0.35"
     inkscape:cx="505.93472"
     inkscape:cy="1161.865"
     inkscape:document-units="mm"
     inkscape:current-layer="layer1"
     showgrid="false"
     fit-margin-top="0"
     fit-margin-left="0"
     fit-margin-right="0"
     fit-margin-bottom="0"
     inkscape:window-width="1920"
     inkscape:window-height="1001"
     inkscape:window-x="-9"
     inkscape:window-y="-9"
     inkscape:window-maximized="1" />
  <metadata
     id="metadata3102">
    <rdf:RDF>
      <cc:Work
         rdf:about="">
        <dc:format>image/svg+xml</dc:format>
        <dc:type
           rdf:resource="http://purl.org/dc/dcmitype/StillImage" />
        <dc:title></dc:title>
      </cc:Work>
    </rdf:RDF>
  </metadata>
  <g
     inkscape:label="Layer 1"
     inkscape:groupmode="layer"
     id="layer1"
     transform="translate(152.38273,448.39135)">
    <g
       id="g3840">
      <g
         transform="matrix(7.1624834,0,0,-7.1624834,442.56578,-327.93056)"
         id="g1275">
        <path
           inkscape:connector-curvature="0"
           id="path1277"
           style="fill:#ed1c24;fill-opacity:1;fill-rule:nonzero;stroke:none"
           d="m 0,0 c -0.799,-0.161 -1.617,-0.254 -2.433,-0.254 -0.624,0 -1.923,0.175 -1.923,1.071 0,2.771 2.273,5.783 2.273,8.65 0,0.178 -0.136,0.336 -0.32,0.336 -1.735,0 -7.444,-7.739 -6.464,-9.802 -0.787,-0.153 -1.593,-0.254 -2.397,-0.254 -0.705,0 -2.101,0.11 -2.101,1.125 0,2.385 3.661,9.014 2.376,11.081 0.93,0.233 1.897,0.425 2.859,0.425 0.68,0 1.83,-0.224 1.83,-1.142 0,-1.207 -0.61,-2.554 -0.988,-3.673 1.68,2.082 4.295,4.942 7.203,4.942 1.307,0 2.307,-0.515 2.307,-1.95 0,-1.02 -0.498,-1.989 -0.63,-2.992 1.715,2.11 4.347,4.942 7.296,4.942 1.227,0 2.342,-0.409 2.342,-1.823 0,-2.745 -1.949,-5.607 -1.949,-8.433 0,-0.601 0.308,-1.426 0.753,-1.841 C 9.157,0.01 8.208,-0.255 7.24,-0.255 c -1.11,0 -2.281,0.312 -2.281,1.643 0,2.773 1.824,5.462 1.824,8.078 0,0.179 -0.136,0.336 -0.319,0.336 C 4.721,9.802 -0.922,2.077 0,0" />
      </g>
      <g
         transform="matrix(7.1624834,0,0,-7.1624834,599.49882,-360.39309)"
         id="g1279">
        <path
           inkscape:connector-curvature="0"
           id="path1281"
           style="fill:#ed1c24;fill-opacity:1;fill-rule:nonzero;stroke:none"
           d="m 0,0 c -1.641,-2.113 -4.187,-4.95 -7.102,-4.95 -2.222,0 -3.369,1.129 -3.369,3.355 0,4.756 4.399,9.52 9.219,9.52 1.143,0 2.383,-0.671 3.305,-0.671 0.192,0 1.197,0.553 1.936,0.553 0.988,0 1.971,-0.165 2.907,-0.48 C 5.505,5.34 4.292,0.553 4.292,-1.868 c 0,-0.805 0.202,-1.603 0.653,-2.275 -0.781,-0.476 -1.68,-0.689 -2.591,-0.689 -1.421,0 -2.703,0.479 -2.703,2.112 0,0.912 0.159,1.831 0.349,2.72 m 2.211,4.652 c -0.798,0.76 -1.806,1.415 -2.945,1.415 -2.548,0 -4.092,-4.855 -4.092,-6.918 0,-0.499 0.178,-1.325 0.844,-1.325 1.361,0 5.386,5.552 6.193,6.828" />
      </g>
      <g
         transform="matrix(7.1624834,0,0,-7.1624834,679.29448,-327.40197)"
         id="g1283">
        <path
           inkscape:connector-curvature="0"
           id="path1285"
           style="fill:#ed1c24;fill-opacity:1;fill-rule:nonzero;stroke:none"
           d="m 0,0 c -0.834,-0.176 -1.687,-0.254 -2.539,-0.254 -0.698,0 -2.178,0.093 -2.178,1.115 0,2.55 3.707,8.807 2.363,11.063 0.963,0.239 1.954,0.425 2.948,0.425 0.729,0 1.972,-0.138 1.972,-1.151 0,-0.881 -0.686,-2.764 -0.988,-3.654 1.357,1.744 3.964,4.914 6.396,4.914 0.546,0 1.372,-0.206 1.372,-0.916 C 9.346,10.023 8.092,8.779 6.998,7.887 6.776,8.136 6.251,8.505 5.897,8.505 3.576,8.505 -1.011,2.14 0,0" />
      </g>
      <g
         transform="matrix(7.1624834,0,0,-7.1624834,775.84203,-389.25217)"
         id="g1287">
        <path
           inkscape:connector-curvature="0"
           id="path1289"
           style="fill:#ed1c24;fill-opacity:1;fill-rule:nonzero;stroke:none"
           d="m 0,0 h -0.289 c -1.072,0 -2.124,-0.105 -3.158,-0.398 l -0.064,0.634 c 0,1.91 2.718,1.66 4.037,1.66 C 0.78,2.807 1.22,4.179 1.22,5.105 1.22,5.484 1.059,5.928 0.848,6.238 1.896,6.516 2.977,6.7 4.064,6.7 c 0.661,0 1.948,-0.103 1.948,-1.052 0,-1.073 -0.73,-2.696 -1.104,-3.753 1.718,0 3.409,0.041 5.113,0.271 C 9.822,-0.498 6.168,-0.002 4.369,0 3.924,-1.504 3.188,-3.804 3.188,-5.341 c 0,-0.914 0.589,-1.432 1.485,-1.432 1.087,0 2.151,0.434 3.103,0.925 0.205,-0.264 0.422,-0.679 0.422,-1.025 0,-1.713 -3.956,-2.249 -5.204,-2.249 -2.004,0 -4.253,0.524 -4.253,2.966 0,1.994 0.69,4.251 1.259,6.156" />
      </g>
      <g
         transform="matrix(7.1624834,0,0,-7.1624834,21.32898,-337.17231)"
         id="g1291">
        <path
           inkscape:connector-curvature="0"
           id="path1293"
           style="fill:#094ca1;fill-opacity:1;fill-rule:nonzero;stroke:none"
           d="m 0,0 c 0,1.051 -5.456,11.05 -6.31,12.684 -1.184,2.266 -3.429,2.844 -5.811,2.844 -2.381,0 -4.626,-0.578 -5.811,-2.843 -0.854,-1.63 -6.321,-11.637 -6.321,-12.683 0,-1.546 2.051,-1.618 3.169,-1.618 3.794,0 4.211,0.944 5.356,4.37 h 7.206 c 1.143,-3.429 1.558,-4.371 5.355,-4.371 C -2.05,-1.617 0,-1.545 0,0 m -9.852,5.732 h -4.543 l 2.272,4.682 z" />
      </g>
      <g
         transform="matrix(7.1624834,0,0,-7.1624834,88.106697,-433.69608)"
         id="g1295">
        <path
           inkscape:connector-curvature="0"
           id="path1297"
           style="fill:#094ca1;fill-opacity:1;fill-rule:nonzero;stroke:none"
           d="m 0,0 c 0,-1.867 0.234,-13.206 -0.305,-14.018 -0.558,-0.84 -2.038,-0.969 -2.929,-0.969 -1.259,0 -3.477,0.269 -3.477,1.955 l 0.002,3.559 0.004,9.313 c 0,1.648 2.152,1.957 3.396,1.957 C -2.201,1.797 0,1.556 0,0" />
      </g>
      <g
         transform="matrix(7.1624834,0,0,-7.1624834,124.19201,-416.20888)"
         id="g1299">
        <path
           inkscape:connector-curvature="0"
           id="path1301"
           style="fill:#094ca1;fill-opacity:1;fill-rule:nonzero;stroke:none"
           d="m 0,0 c 0.004,5.117 4.56,3.946 8.334,3.946 0.678,0 1.827,-0.393 1.827,-1.248 C 10.161,1.197 7.529,1.45 6.7,1.45 V 0.725 -0.001 c 0.83,0 3.459,0.254 3.459,-1.248 0,-1.501 -2.632,-1.248 -3.46,-1.248 l 0.002,-8.255 c 0,-1.52 -2.136,-1.795 -3.232,-1.795 -1.259,0 -3.474,0.271 -3.474,1.955 l 0.004,8.095 c -0.828,0 -3.375,-0.23 -3.375,1.249 C -3.376,0.231 -0.828,0 0,0" />
      </g>
      <g
         transform="matrix(7.1624834,0,0,-7.1624834,250.69943,-373.14086)"
         id="g1303">
        <path
           inkscape:connector-curvature="0"
           id="path1305"
           style="fill:#094ca1;fill-opacity:1;fill-rule:nonzero;stroke:none"
           d="m 0,0 c 0,-1.933 0.231,-3.463 2.501,-3.463 2.271,0 2.351,1.295 2.351,3.069 0,1.948 -0.008,4.018 -2.439,4.018 C 0.094,3.624 0,1.845 0,0 M 4.818,5.626 C 5.28,6.393 7.421,6.52 8.184,6.52 9.104,6.52 11.2,6.506 11.2,5.138 L 11.199,1.606 c 0,-3.231 1.404,-8.064 -3.059,-8.064 -0.685,0 -3.028,0.124 -3.327,0.973 -1.391,-0.624 -3.019,-0.879 -4.535,-0.879 -4.081,0 -7.14,1.73 -7.14,6.136 0,4.177 3.046,6.637 7.115,6.637 C 1.28,6.409 4,6.312 4.818,5.626" />
      </g>
      <g
         transform="matrix(7.1624834,0,0,-7.1624834,-80.546712,-301.18796)"
         id="g1307">
        <path
           inkscape:connector-curvature="0"
           id="path1309"
           style="fill:#ed1c24;fill-opacity:1;fill-rule:nonzero;stroke:none"
           d="m 0,0 129.367,-0.011 -10e-4,-3.133 c 0,-0.645 -0.839,-7.044 -2.074,-7.044 L -10,-10.177 C -10,-4.206 -5.999,0 0,0" />
      </g>
      <g
         transform="matrix(7.1624834,0,0,-7.1624834,-152.17565,-218.68982)"
         id="g1311">
        <path
           inkscape:connector-curvature="0"
           id="path1313"
           style="fill:#ffde1b;fill-opacity:1;fill-rule:nonzero;stroke:none"
           d="m 0,0 136.048,-0.012 c -1.735,-1.218 -4.518,-2.237 -6.681,-2.237 L -0.001,-2.238 Z" />
      </g>
      <g
         transform="matrix(7.1624834,0,0,-7.1624834,599.2296,-17.150416)"
         id="g1315">
        <path
           inkscape:connector-curvature="0"
           id="path1317"
           style="fill:#ed1c24;fill-opacity:1;fill-rule:nonzero;stroke:none"
           d="M 0,0 C 5.015,4.843 15.422,6.496 22.149,6.496 25.604,6.496 29.1,6.148 32.431,5.204 30.874,5.365 29.307,5.44 27.741,5.44 20.283,5.44 9.004,3.434 3.659,-2.231 Z" />
      </g>
      <g
         transform="matrix(7.1624834,0,0,-7.1624834,-94.561538,-175.87605)"
         id="g1319">
        <path
           inkscape:connector-curvature="0"
           id="path1321"
           style="fill:#000000;fill-opacity:1;fill-rule:nonzero;stroke:none"
           d="m 0,0 c 0.136,-0.14 -0.128,-0.408 -0.223,-0.565 1.147,-0.037 5.59,-0.278 5.59,-1.584 0,-1.067 -4.647,-2.186 -5.678,-2.417 1.304,-0.562 4.998,-2.103 4.998,-3.778 0,-0.968 -2.516,-2.074 -3.379,-2.074 -0.756,0 -4.561,0.684 -4.561,1.637 0,0.344 1.786,1.092 2.141,1.181 l 0.15,-0.149 c -0.359,-0.094 -0.971,-0.303 -0.971,-0.765 0,-0.96 2.832,-1.294 3.479,-1.294 0.524,0 1.743,0.122 1.743,0.9 0,2.049 -5.064,3.325 -5.064,3.911 0,0.788 5.832,1.671 5.832,2.275 0,1.106 -3.948,1.387 -4.662,1.399 -0.877,-1.764 -3.635,-6.765 -3.635,-8.285 0,-0.301 -1.181,-0.721 -1.463,-0.809 -0.034,-0.011 -0.104,0.122 -0.101,0.14 0.397,2.071 3.097,6.839 4.24,8.954 l -0.519,0.014 c -0.495,0 -2.478,-0.045 -2.478,-0.534 l -0.058,-0.149 c -0.169,0 -0.847,0.336 -1.095,0.409 C -5.709,-0.7 -1.041,-0.603 0,0" />
      </g>
      <g
         transform="matrix(7.1624834,0,0,-7.1624834,-44.662196,-120.90686)"
         id="g1323">
        <path
           inkscape:connector-curvature="0"
           id="path1325"
           style="fill:#000000;fill-opacity:1;fill-rule:nonzero;stroke:none"
           d="M 0,0 C 0.692,0.31 1.801,1.114 1.801,1.992 1.801,2.279 1.58,2.528 1.283,2.528 0.493,2.528 0.038,0.617 0,0 M 2.844,-0.886 2.902,-1.048 C 2.197,-1.589 1.258,-2.164 0.338,-2.164 c -0.809,0 -1.391,0.678 -1.391,1.464 0,1.446 1.732,3.972 3.294,3.972 0.331,0 0.562,-0.274 0.562,-0.595 0,-1.32 -1.727,-2.425 -2.775,-2.938 0.052,-0.683 0.686,-1.204 1.355,-1.204 0.548,0 1.017,0.285 1.461,0.579" />
      </g>
      <g
         transform="matrix(7.1624834,0,0,-7.1624834,0.12990078,-119.35833)"
         id="g1327">
        <path
           inkscape:connector-curvature="0"
           id="path1329"
           style="fill:#000000;fill-opacity:1;fill-rule:nonzero;stroke:none"
           d="m 0,0 0.086,0.014 0.03,-0.118 0.07,-0.365 c 0,-0.487 -1.453,-1.539 -2.031,-1.539 -0.787,0 -1.037,0.957 -1.037,1.584 0,0.978 1.373,7.51 2.885,7.51 0.101,0 0.101,-0.312 0.101,-0.363 0,-2.837 -1.935,-3.998 -1.935,-6.418 0,-0.564 0.182,-1.503 0.915,-1.503 0.568,0 0.849,0.741 0.916,1.198" />
      </g>
      <g
         transform="matrix(7.1624834,0,0,-7.1624834,33.624133,-129.79122)"
         id="g1331">
        <path
           inkscape:connector-curvature="0"
           id="path1333"
           style="fill:#000000;fill-opacity:1;fill-rule:nonzero;stroke:none"
           d="m 0,0 c 0,0.375 -0.114,1.228 -0.632,1.228 -0.949,0 -2.157,-2.491 -2.157,-3.31 0,-0.245 0.155,-0.438 0.41,-0.438 C -1.675,-2.52 0,-0.571 0,0 m -0.44,-1.472 c -0.698,-0.589 -2.052,-1.919 -2.984,-1.919 -0.356,0 -0.547,0.332 -0.547,0.655 0,1.912 2.428,4.143 4.182,4.736 C 0.877,2.226 0.512,0.248 0.476,0.127 0.618,0.149 0.799,0.283 0.931,0.283 0.968,0.283 0.916,0.227 0.906,0.191 L 0.858,0.008 0.787,-0.268 c -0.108,-0.45 -0.239,-0.915 -0.239,-1.383 0,-0.646 0.341,-1.595 1.166,-1.406 L 1.759,-3.16 C 1.358,-3.366 0.731,-3.8 0.294,-3.8 c -0.984,0 -0.816,1.694 -0.734,2.328" />
      </g>
      <g
         transform="matrix(7.1624834,0,0,-7.1624834,64.093811,-142.8384)"
         id="g1335">
        <path
           inkscape:connector-curvature="0"
           id="path1337"
           style="fill:#000000;fill-opacity:1;fill-rule:nonzero;stroke:none"
           d="m 0,0 c 0.202,0 0.431,-0.372 0.431,-0.543 0,-0.808 -0.304,-1.556 -0.614,-2.29 0.432,0.419 2.289,2.096 2.942,2.096 0.57,0 0.115,-2.208 0.115,-2.662 0,-0.859 -0.019,-1.323 0.87,-1.323 l 0.058,-0.141 c 0,-0.018 -1.224,-0.714 -1.341,-0.714 -1.038,0 -0.474,3.016 -0.474,3.584 0,0.083 -0.118,0.424 -0.223,0.424 -0.498,0 -2.362,-3.067 -3.661,-3.599 l -0.073,0.141 c 0,0.313 1.136,2.928 1.255,3.733 0.018,0.12 -0.016,0.439 -0.201,0.439 -0.355,0 -0.461,-0.684 -0.815,-0.684 l -0.043,0.104 C -1.679,-1.035 -0.454,0 0,0" />
      </g>
      <g
         transform="matrix(7.1624834,0,0,-7.1624834,95.708788,-108.80084)"
         id="g1339">
        <path
           inkscape:connector-curvature="0"
           id="path1341"
           style="fill:#000000;fill-opacity:1;fill-rule:nonzero;stroke:none"
           d="m 0,0 -0.043,0.015 c 0.178,1.014 1.687,4.447 3.058,4.447 0.23,0 0.323,-0.481 0.323,-0.64 0,-0.846 -0.243,-1.723 -0.426,-2.543 L 3.74,1.993 3.828,1.792 C 2.746,0.763 1.347,-4.113 0.148,-4.113 c -0.166,0 -0.235,0.2 -0.235,0.336 0,2.045 2.365,3.293 2.365,6.64 0,0.24 -0.026,0.501 -0.106,0.729 C 1.016,2.358 1.448,0.986 0,0 m 2.691,5.264 c -0.117,0 -0.353,0.755 -0.353,0.87 0,0.435 0.727,0.479 1.059,0.759 C 3.518,6.822 3.783,6.045 3.8,5.919 3.687,5.858 2.758,5.264 2.691,5.264" />
      </g>
      <g
         transform="matrix(7.1624834,0,0,-7.1624834,155.74811,-129.78119)"
         id="g1343">
        <path
           inkscape:connector-curvature="0"
           id="path1345"
           style="fill:#000000;fill-opacity:1;fill-rule:nonzero;stroke:none"
           d="m 0,0 c 0,0.378 -0.113,1.227 -0.634,1.227 -0.946,0 -2.157,-2.492 -2.157,-3.309 0,-0.245 0.159,-0.438 0.412,-0.438 C -1.675,-2.52 0,-0.57 0,0 m -0.44,-1.472 c -0.692,-0.588 -2.06,-1.919 -2.985,-1.919 -0.357,0 -0.546,0.331 -0.546,0.655 0,1.912 2.426,4.141 4.18,4.736 C 0.875,2.226 0.513,0.249 0.476,0.126 0.618,0.15 0.798,0.283 0.931,0.283 0.968,0.283 0.916,0.227 0.906,0.191 L 0.858,0.008 0.785,-0.268 c -0.109,-0.45 -0.239,-0.915 -0.239,-1.383 0,-0.644 0.345,-1.599 1.168,-1.406 L 1.757,-3.161 C 1.358,-3.367 0.73,-3.8 0.294,-3.8 c -0.982,0 -0.821,1.695 -0.734,2.328" />
      </g>
      <g
         transform="matrix(7.1624834,0,0,-7.1624834,223.54626,-110.3902)"
         id="g1347">
        <path
           inkscape:connector-curvature="0"
           id="path1349"
           style="fill:#000000;fill-opacity:1;fill-rule:nonzero;stroke:none"
           d="M 0,0 C 0.952,0 1.393,1.68 1.393,2.424 1.393,2.768 1.255,3.248 0.831,3.248 0.014,3.248 -0.98,0.829 -1.086,0.416 -0.796,0.221 -0.361,0 0,0 M -2.144,2.915 -2.916,2.35 c -0.094,0.142 -0.159,0.343 -0.159,0.513 0,0.738 1.391,2.223 2.085,2.223 0.692,0 0.236,-2.621 0.186,-2.922 0.458,0.541 1.881,2.014 2.646,2.014 0.404,0 0.54,-0.522 0.54,-0.84 0,-1.844 -1.733,-4.487 -3.822,-3.949 -0.343,-1.615 -0.478,-2.916 -1.861,-3.836 l -0.043,0.461 c 0,1.233 0.532,2.651 1.003,3.778 -0.177,0.092 -0.454,0.34 -0.454,0.565 0,0.278 0.972,0.64 1.047,0.832 0.154,0.399 0.264,1.536 0.264,1.993 0,0.192 -0.082,1.101 -0.394,1.101 -0.464,0 0.109,-1.094 -0.266,-1.368" />
      </g>
      <g
         transform="matrix(7.1624834,0,0,-7.1624834,256.23832,-132.43417)"
         id="g1351">
        <path
           inkscape:connector-curvature="0"
           id="path1353"
           style="fill:#000000;fill-opacity:1;fill-rule:nonzero;stroke:none"
           d="M 0,0 C 0,0.397 1.435,1.323 1.745,1.323 L 1.788,1.264 C 1.503,0.117 0.344,-1.124 0.344,-2.305 c 0,-0.2 0.036,-0.543 0.31,-0.543 1.593,0 2.876,3.911 4.297,3.911 l 0.087,-0.09 c 0,-0.541 -0.974,-1.164 -0.974,-2.372 0,-0.771 0.441,-2.016 1.455,-1.509 l 0.065,-0.186 c 0,-0.123 -0.217,-0.118 -0.324,-0.178 -0.396,-0.223 -0.872,-0.566 -1.349,-0.566 -0.937,0 -0.978,1.667 -0.9,2.328 -0.949,-0.852 -2.198,-1.977 -3.568,-1.977 -0.228,0 -0.403,0.194 -0.403,0.416 0,0.731 0.881,2.283 1.213,2.952 z" />
      </g>
      <g
         transform="matrix(7.1624834,0,0,-7.1624834,328.85196,-129.76683)"
         id="g1355">
        <path
           inkscape:connector-curvature="0"
           id="path1357"
           style="fill:#000000;fill-opacity:1;fill-rule:nonzero;stroke:none"
           d="m 0,0 c 0,0.378 -0.113,1.227 -0.634,1.227 -0.946,0 -2.157,-2.493 -2.157,-3.31 0,-0.244 0.159,-0.437 0.412,-0.437 C -1.674,-2.52 0,-0.572 0,0 m -0.44,-1.472 c -0.733,-0.619 -2.098,-1.919 -2.984,-1.919 -0.358,0 -0.547,0.33 -0.547,0.655 0,1.911 2.422,4.141 4.182,4.736 C 0.878,2.225 0.512,0.248 0.476,0.126 0.618,0.149 0.799,0.283 0.931,0.283 0.968,0.283 0.916,0.227 0.906,0.191 L 0.858,0.008 0.787,-0.268 C 0.677,-0.72 0.548,-1.182 0.548,-1.652 c 0,-0.643 0.341,-1.599 1.166,-1.405 L 1.757,-3.161 C 1.358,-3.369 0.732,-3.8 0.294,-3.8 c -0.979,0 -0.822,1.694 -0.734,2.328" />
      </g>
      <g
         transform="matrix(7.1624834,0,0,-7.1624834,353.1501,-113.67918)"
         id="g1359">
        <path
           inkscape:connector-curvature="0"
           id="path1361"
           style="fill:#000000;fill-opacity:1;fill-rule:nonzero;stroke:none"
           d="m 0,0 c 0.487,0 0.386,-0.64 1.147,-0.64 0.454,0 1.038,0.241 1.038,0.773 0,0.876 -2.673,0.44 -2.673,1.711 0,1.158 2.363,2.431 3.38,2.431 0.465,0 0.843,-0.306 0.843,-0.788 0,-0.743 -0.727,-1.299 -1.326,-1.599 L 2.257,2.022 c 0.269,0.25 0.491,0.698 0.491,1.07 0,0.359 -0.221,0.685 -0.604,0.685 -0.714,0 -1.592,-0.928 -1.592,-1.671 0,-0.462 2.534,-0.453 2.534,-1.453 0,-1.021 -2.128,-1.873 -2.956,-1.873 -0.245,0 -1.226,0.124 -1.226,0.491 C -1.096,-0.599 -0.11,0 0,0" />
      </g>
      <g
         transform="matrix(7.1624834,0,0,-7.1624834,388.02941,-94.237338)"
         id="g1363">
        <path
           inkscape:connector-curvature="0"
           id="path1365"
           style="fill:#000000;fill-opacity:1;fill-rule:nonzero;stroke:none"
           d="M 0,0 -0.144,0.126 C 0.221,0.686 0.604,1.297 0.773,1.947 0.821,2.131 0.351,1.828 0.297,1.828 c -0.15,0 -0.238,0.157 -0.238,0.291 0,0.424 1.075,1.078 1.45,1.078 0.224,0 0.396,-0.19 0.396,-0.41 C 1.905,2.246 0.609,0 0,0" />
      </g>
      <g
         transform="matrix(7.1624834,0,0,-7.1624834,468.51781,-101.88978)"
         id="g1367">
        <path
           inkscape:connector-curvature="0"
           id="path1369"
           style="fill:#000000;fill-opacity:1;fill-rule:nonzero;stroke:none"
           d="m 0,0 c -0.86,0 -0.601,2.14 -0.601,2.66 0,0.497 -0.047,1.151 -0.377,1.542 -1.195,-1.328 -1.23,-2.627 -2.791,-3.561 l -0.058,0.073 c 0,2.687 1.453,5.564 1.453,8.337 0,0.201 0.85,0.67 1.045,0.802 0.188,-0.077 0.209,-0.322 0.209,-0.498 0,-1.299 -1.119,-5.105 -1.495,-6.581 l 0.116,0.134 c 0.444,0.598 1.63,2.075 2.489,2.208 C 0.513,4.933 0.339,3.326 0.339,2.819 0.339,1.973 0.281,1.234 1.031,0.744 V 0.67 C 1.031,0.578 0.079,0 0,0" />
      </g>
      <g
         transform="matrix(7.1624834,0,0,-7.1624834,508.48488,-128.78991)"
         id="g1371">
        <path
           inkscape:connector-curvature="0"
           id="path1373"
           style="fill:#000000;fill-opacity:1;fill-rule:nonzero;stroke:none"
           d="m 0,0 c 0,0.378 -0.113,1.227 -0.634,1.227 -0.936,0 -2.157,-2.494 -2.157,-3.31 0,-0.245 0.158,-0.438 0.412,-0.438 C -1.676,-2.521 0,-0.57 0,0 m -0.44,-1.473 c -0.706,-0.586 -2.049,-1.919 -2.986,-1.919 -0.357,0 -0.546,0.331 -0.546,0.655 0,1.915 2.426,4.139 4.181,4.737 C 0.874,2.227 0.51,0.244 0.476,0.126 0.617,0.149 0.797,0.282 0.927,0.282 0.964,0.282 0.913,0.226 0.904,0.19 L 0.856,0.007 0.784,-0.268 C 0.675,-0.719 0.545,-1.184 0.545,-1.652 c 0,-0.645 0.344,-1.597 1.168,-1.405 L 1.756,-3.161 C 1.356,-3.367 0.73,-3.8 0.294,-3.8 c -0.982,0 -0.821,1.693 -0.734,2.327" />
      </g>
      <g
         transform="matrix(7.1624834,0,0,-7.1624834,524.73954,-122.07364)"
         id="g1375">
        <path
           inkscape:connector-curvature="0"
           id="path1377"
           style="fill:#000000;fill-opacity:1;fill-rule:nonzero;stroke:none"
           d="M 0,0 C 0,0.638 0.658,1.102 0.871,1.703 0.603,1.714 0.245,1.789 0.245,2.111 c 0,0.353 1.239,1.146 1.573,1.146 0.352,0 -0.097,-0.882 -0.147,-0.974 l 1.398,0.074 c 0.141,0 0.845,-0.064 0.845,-0.29 0,-0.301 -1.717,-1.836 -1.717,-3.198 0,-0.328 0.221,-0.802 0.605,-0.802 0.229,0 0.675,0.322 0.843,0.453 L 3.675,-1.785 3.563,-1.837 3.115,-2.042 C 2.954,-2.115 1.924,-2.604 1.742,-2.528 c -0.44,0.182 -0.756,0.272 -0.756,0.855 0,1.335 1.744,3.059 1.744,3.346 0,0.173 -0.365,0.216 -0.474,0.216 -1.199,0 -1.422,-1.208 -2.063,-2.075 z" />
      </g>
      <g
         transform="matrix(7.1624834,0,0,-7.1624834,579.33763,-102.5179)"
         id="g1379">
        <path
           inkscape:connector-curvature="0"
           id="path1381"
           style="fill:#000000;fill-opacity:1;fill-rule:nonzero;stroke:none"
           d="m 0,0 c -0.643,-0.372 -1.905,-1.374 -1.905,-2.208 0,-0.196 0.141,-0.409 0.353,-0.409 0.57,0 1.431,2.159 1.552,2.617 m 0.26,1.399 c 0,0.184 -0.1,0.326 -0.289,0.326 -0.716,0 -1.725,-0.854 -2.552,-0.854 -0.308,0 -0.562,0.239 -0.562,0.55 0,1.397 3.049,3.926 4.327,3.926 0.236,0 0.403,-0.215 0.403,-0.439 0,-0.519 -1.341,-1.539 -1.716,-1.539 L -0.2,3.518 c 0.242,0.248 0.459,0.584 0.459,0.94 0,0.059 -0.133,0.213 -0.165,0.264 -0.705,-0.349 -2.01,-1.891 -2.01,-2.677 0,-0.218 0.17,-0.35 0.381,-0.35 0.821,0 1.822,0.916 2.452,0.916 0.696,0 0.301,-1.435 0.192,-1.741 0.132,0.059 0.377,0.231 0.519,0.231 L 1.671,0.886 C 0.012,0.079 0.008,-3.405 -2.654,-3.405 c -0.231,0 -0.448,0.145 -0.448,0.394 0,2.214 3.362,2.371 3.362,4.41" />
      </g>
      <g
         transform="matrix(7.1624834,0,0,-7.1624834,624.09542,-128.77342)"
         id="g1383">
        <path
           inkscape:connector-curvature="0"
           id="path1385"
           style="fill:#000000;fill-opacity:1;fill-rule:nonzero;stroke:none"
           d="m 0,0 c 0,0.377 -0.114,1.228 -0.634,1.228 -0.936,0 -2.156,-2.494 -2.156,-3.31 0,-0.246 0.157,-0.438 0.411,-0.438 C -1.676,-2.52 0,-0.57 0,0 m -0.44,-1.472 c -0.706,-0.586 -2.049,-1.919 -2.986,-1.919 -0.357,0 -0.545,0.331 -0.545,0.655 0,1.916 2.424,4.139 4.18,4.737 C 0.876,2.228 0.511,0.246 0.476,0.126 0.617,0.15 0.797,0.283 0.929,0.283 0.966,0.283 0.914,0.227 0.905,0.191 L 0.858,0.008 0.785,-0.268 c -0.109,-0.45 -0.239,-0.915 -0.239,-1.383 0,-0.646 0.344,-1.595 1.168,-1.406 L 1.757,-3.16 c -0.4,-0.206 -1.026,-0.639 -1.463,-0.639 -0.982,0 -0.821,1.693 -0.734,2.327" />
      </g>
      <g
         transform="matrix(7.1624834,0,0,-7.1624834,691.89479,-109.38169)"
         id="g1387">
        <path
           inkscape:connector-curvature="0"
           id="path1389"
           style="fill:#000000;fill-opacity:1;fill-rule:nonzero;stroke:none"
           d="M 0,0 C 0.951,0 1.393,1.68 1.393,2.424 1.393,2.766 1.252,3.25 0.831,3.25 0.018,3.25 -0.979,0.839 -1.087,0.417 -0.796,0.221 -0.362,0 0,0 M -2.144,2.916 -2.916,2.35 c -0.093,0.142 -0.159,0.343 -0.159,0.513 0,0.736 1.389,2.223 2.082,2.223 0.697,0 0.238,-2.618 0.188,-2.922 0.458,0.539 1.883,2.015 2.644,2.015 0.406,0 0.543,-0.521 0.543,-0.84 0,-1.837 -1.737,-4.499 -3.823,-3.948 -0.344,-1.621 -0.477,-2.912 -1.86,-3.838 l -0.043,0.461 c 0,1.234 0.532,2.65 1.003,3.778 -0.176,0.092 -0.454,0.341 -0.454,0.565 0,0.44 1.31,0.097 1.31,2.826 0,0.192 -0.083,1.1 -0.393,1.1 -0.464,0 0.108,-1.093 -0.266,-1.367" />
      </g>
      <g
         transform="matrix(7.1624834,0,0,-7.1624834,741.7184,-128.76337)"
         id="g1391">
        <path
           inkscape:connector-curvature="0"
           id="path1393"
           style="fill:#000000;fill-opacity:1;fill-rule:nonzero;stroke:none"
           d="m 0,0 c 0,0.377 -0.114,1.228 -0.634,1.228 -0.946,0 -2.156,-2.493 -2.156,-3.31 0,-0.246 0.156,-0.438 0.411,-0.438 C -1.676,-2.52 0,-0.57 0,0 m -0.44,-1.472 c -0.709,-0.586 -2.046,-1.919 -2.985,-1.919 -0.357,0 -0.546,0.331 -0.546,0.655 0,1.914 2.425,4.141 4.18,4.736 C 0.876,2.226 0.511,0.247 0.476,0.127 0.617,0.15 0.797,0.283 0.929,0.283 0.966,0.283 0.914,0.227 0.905,0.191 L 0.858,0.008 0.785,-0.268 c -0.109,-0.45 -0.239,-0.915 -0.239,-1.383 0,-0.646 0.344,-1.595 1.168,-1.406 L 1.757,-3.16 c -0.4,-0.206 -1.026,-0.639 -1.463,-0.639 -0.982,0 -0.821,1.693 -0.734,2.327" />
      </g>
      <g
         transform="matrix(7.1624834,0,0,-7.1624834,766.01735,-112.67787)"
         id="g1395">
        <path
           inkscape:connector-curvature="0"
           id="path1397"
           style="fill:#000000;fill-opacity:1;fill-rule:nonzero;stroke:none"
           d="m 0,0 c 0.489,0 0.383,-0.639 1.145,-0.639 0.455,0 1.038,0.24 1.038,0.773 0,0.874 -2.672,0.441 -2.672,1.71 0,1.158 2.365,2.431 3.381,2.431 0.465,0 0.843,-0.307 0.843,-0.788 0,-0.739 -0.73,-1.302 -1.326,-1.598 L 2.257,2.022 c 0.267,0.25 0.491,0.7 0.491,1.071 0,0.358 -0.226,0.685 -0.606,0.685 -0.715,0 -1.59,-0.928 -1.59,-1.672 0,-0.461 2.534,-0.454 2.534,-1.452 0,-1.023 -2.13,-1.873 -2.958,-1.873 -0.245,0 -1.223,0.124 -1.223,0.491 C -1.095,-0.599 -0.11,0 0,0" />
      </g>
    </g>
  </g>
</svg>
